<mxfile host="app.diagrams.net" modified="2023-07-19T06:41:17.050Z" agent="Mozilla/5.0 (Windows NT 10.0; Win64; x64) AppleWebKit/537.36 (KHTML, like Gecko) Chrome/114.0.0.0 Safari/537.36" etag="A7JBCOy4Nqy6ujTZR6I_" version="21.6.3" type="device">
  <diagram name="Page-1" id="fy_gN4Rx69JBuaBMpErR">
    <mxGraphModel dx="1050" dy="1615" grid="1" gridSize="10" guides="1" tooltips="1" connect="1" arrows="1" fold="1" page="1" pageScale="1" pageWidth="850" pageHeight="1100" math="0" shadow="0">
      <root>
        <mxCell id="0" />
        <mxCell id="1" parent="0" />
        <mxCell id="ggKiJLsTE306PYhVsKVT-1" value="Refer_User" style="rounded=0;whiteSpace=wrap;html=1;" parent="1" vertex="1">
          <mxGeometry x="80" y="250" width="100" height="50" as="geometry" />
        </mxCell>
        <mxCell id="ggKiJLsTE306PYhVsKVT-2" value="user_id" style="ellipse;whiteSpace=wrap;html=1;" parent="1" vertex="1">
          <mxGeometry x="40" y="130" width="70" height="50" as="geometry" />
        </mxCell>
        <mxCell id="ggKiJLsTE306PYhVsKVT-3" value="friend_id" style="ellipse;whiteSpace=wrap;html=1;" parent="1" vertex="1">
          <mxGeometry x="180" y="130" width="60" height="50" as="geometry" />
        </mxCell>
        <mxCell id="ggKiJLsTE306PYhVsKVT-4" value="" style="endArrow=classic;html=1;rounded=0;exitX=0.5;exitY=0;exitDx=0;exitDy=0;" parent="1" source="ggKiJLsTE306PYhVsKVT-1" target="ggKiJLsTE306PYhVsKVT-2" edge="1">
          <mxGeometry width="50" height="50" relative="1" as="geometry">
            <mxPoint x="130" y="240" as="sourcePoint" />
            <mxPoint x="700" y="240" as="targetPoint" />
          </mxGeometry>
        </mxCell>
        <mxCell id="ggKiJLsTE306PYhVsKVT-5" value="" style="endArrow=classic;html=1;rounded=0;exitX=0.855;exitY=0.017;exitDx=0;exitDy=0;exitPerimeter=0;entryX=0.33;entryY=1.02;entryDx=0;entryDy=0;entryPerimeter=0;" parent="1" source="ggKiJLsTE306PYhVsKVT-1" target="ggKiJLsTE306PYhVsKVT-3" edge="1">
          <mxGeometry width="50" height="50" relative="1" as="geometry">
            <mxPoint x="650" y="290" as="sourcePoint" />
            <mxPoint x="700" y="240" as="targetPoint" />
          </mxGeometry>
        </mxCell>
        <mxCell id="ggKiJLsTE306PYhVsKVT-6" value="user" style="rounded=0;whiteSpace=wrap;html=1;" parent="1" vertex="1">
          <mxGeometry x="350" y="250" width="80" height="40" as="geometry" />
        </mxCell>
        <mxCell id="ggKiJLsTE306PYhVsKVT-7" value="" style="endArrow=none;html=1;rounded=0;exitX=1;exitY=0.5;exitDx=0;exitDy=0;entryX=0;entryY=0.5;entryDx=0;entryDy=0;" parent="1" source="ggKiJLsTE306PYhVsKVT-8" target="ggKiJLsTE306PYhVsKVT-6" edge="1">
          <mxGeometry width="50" height="50" relative="1" as="geometry">
            <mxPoint x="160" y="290" as="sourcePoint" />
            <mxPoint x="210" y="240" as="targetPoint" />
          </mxGeometry>
        </mxCell>
        <mxCell id="ggKiJLsTE306PYhVsKVT-9" value="" style="endArrow=none;html=1;rounded=0;exitX=1;exitY=0.5;exitDx=0;exitDy=0;entryX=0;entryY=0.5;entryDx=0;entryDy=0;" parent="1" source="ggKiJLsTE306PYhVsKVT-1" target="ggKiJLsTE306PYhVsKVT-8" edge="1">
          <mxGeometry width="50" height="50" relative="1" as="geometry">
            <mxPoint x="200" y="280" as="sourcePoint" />
            <mxPoint x="300" y="280" as="targetPoint" />
          </mxGeometry>
        </mxCell>
        <mxCell id="ggKiJLsTE306PYhVsKVT-8" value="refer" style="rhombus;whiteSpace=wrap;html=1;" parent="1" vertex="1">
          <mxGeometry x="220" y="240" width="60" height="60" as="geometry" />
        </mxCell>
        <mxCell id="ggKiJLsTE306PYhVsKVT-10" value="" style="endArrow=none;html=1;rounded=0;exitX=0.5;exitY=0;exitDx=0;exitDy=0;" parent="1" source="ggKiJLsTE306PYhVsKVT-11" edge="1">
          <mxGeometry width="50" height="50" relative="1" as="geometry">
            <mxPoint x="160" y="290" as="sourcePoint" />
            <mxPoint x="405" y="150" as="targetPoint" />
          </mxGeometry>
        </mxCell>
        <mxCell id="ggKiJLsTE306PYhVsKVT-12" value="" style="endArrow=none;html=1;rounded=0;exitX=0.5;exitY=0;exitDx=0;exitDy=0;" parent="1" source="ggKiJLsTE306PYhVsKVT-6" target="ggKiJLsTE306PYhVsKVT-11" edge="1">
          <mxGeometry width="50" height="50" relative="1" as="geometry">
            <mxPoint x="405" y="250" as="sourcePoint" />
            <mxPoint x="405" y="150" as="targetPoint" />
          </mxGeometry>
        </mxCell>
        <mxCell id="ggKiJLsTE306PYhVsKVT-11" value="do" style="rhombus;whiteSpace=wrap;html=1;" parent="1" vertex="1">
          <mxGeometry x="365" y="140" width="65" height="60" as="geometry" />
        </mxCell>
        <mxCell id="ggKiJLsTE306PYhVsKVT-13" value="" style="endArrow=none;html=1;rounded=0;exitX=0.5;exitY=0;exitDx=0;exitDy=0;" parent="1" source="ggKiJLsTE306PYhVsKVT-11" edge="1">
          <mxGeometry width="50" height="50" relative="1" as="geometry">
            <mxPoint x="160" y="290" as="sourcePoint" />
            <mxPoint x="405" y="76.79998779296875" as="targetPoint" />
          </mxGeometry>
        </mxCell>
        <mxCell id="ggKiJLsTE306PYhVsKVT-15" value="Transaction" style="rounded=0;whiteSpace=wrap;html=1;" parent="1" vertex="1">
          <mxGeometry x="340" y="60" width="100" height="50" as="geometry" />
        </mxCell>
        <mxCell id="ggKiJLsTE306PYhVsKVT-16" value="" style="endArrow=none;html=1;rounded=0;entryX=0;entryY=0.75;entryDx=0;entryDy=0;" parent="1" target="ggKiJLsTE306PYhVsKVT-15" edge="1">
          <mxGeometry width="50" height="50" relative="1" as="geometry">
            <mxPoint x="270" y="105" as="sourcePoint" />
            <mxPoint x="210" y="190" as="targetPoint" />
          </mxGeometry>
        </mxCell>
        <mxCell id="ggKiJLsTE306PYhVsKVT-17" value="" style="endArrow=none;html=1;rounded=0;entryX=0;entryY=0.25;entryDx=0;entryDy=0;" parent="1" target="ggKiJLsTE306PYhVsKVT-15" edge="1">
          <mxGeometry width="50" height="50" relative="1" as="geometry">
            <mxPoint x="270" y="60" as="sourcePoint" />
            <mxPoint x="350" y="115" as="targetPoint" />
          </mxGeometry>
        </mxCell>
        <mxCell id="ggKiJLsTE306PYhVsKVT-18" value="" style="endArrow=none;html=1;rounded=0;entryX=0.141;entryY=0.009;entryDx=0;entryDy=0;entryPerimeter=0;" parent="1" target="ggKiJLsTE306PYhVsKVT-15" edge="1">
          <mxGeometry width="50" height="50" relative="1" as="geometry">
            <mxPoint x="280" y="30" as="sourcePoint" />
            <mxPoint x="350" y="115" as="targetPoint" />
          </mxGeometry>
        </mxCell>
        <mxCell id="ggKiJLsTE306PYhVsKVT-19" value="" style="endArrow=none;html=1;rounded=0;" parent="1" edge="1">
          <mxGeometry width="50" height="50" relative="1" as="geometry">
            <mxPoint x="370" y="10" as="sourcePoint" />
            <mxPoint x="390" y="60" as="targetPoint" />
          </mxGeometry>
        </mxCell>
        <mxCell id="ggKiJLsTE306PYhVsKVT-20" value="" style="endArrow=none;html=1;rounded=0;entryX=0.618;entryY=0.009;entryDx=0;entryDy=0;entryPerimeter=0;exitX=0.308;exitY=0.953;exitDx=0;exitDy=0;exitPerimeter=0;" parent="1" source="ggKiJLsTE306PYhVsKVT-29" target="ggKiJLsTE306PYhVsKVT-15" edge="1">
          <mxGeometry width="50" height="50" relative="1" as="geometry">
            <mxPoint x="414" y="10" as="sourcePoint" />
            <mxPoint x="395" y="67" as="targetPoint" />
          </mxGeometry>
        </mxCell>
        <mxCell id="ggKiJLsTE306PYhVsKVT-21" value="" style="endArrow=none;html=1;rounded=0;exitX=0;exitY=1;exitDx=0;exitDy=0;" parent="1" source="ggKiJLsTE306PYhVsKVT-30" edge="1">
          <mxGeometry width="50" height="50" relative="1" as="geometry">
            <mxPoint x="470" y="10" as="sourcePoint" />
            <mxPoint x="430" y="60" as="targetPoint" />
          </mxGeometry>
        </mxCell>
        <mxCell id="ggKiJLsTE306PYhVsKVT-22" value="" style="endArrow=none;html=1;rounded=0;entryX=1;entryY=0.5;entryDx=0;entryDy=0;" parent="1" target="ggKiJLsTE306PYhVsKVT-15" edge="1">
          <mxGeometry width="50" height="50" relative="1" as="geometry">
            <mxPoint x="520" y="40" as="sourcePoint" />
            <mxPoint x="434" y="81" as="targetPoint" />
          </mxGeometry>
        </mxCell>
        <mxCell id="ggKiJLsTE306PYhVsKVT-23" value="" style="endArrow=none;html=1;rounded=0;entryX=1;entryY=0.75;entryDx=0;entryDy=0;" parent="1" target="ggKiJLsTE306PYhVsKVT-15" edge="1">
          <mxGeometry width="50" height="50" relative="1" as="geometry">
            <mxPoint x="570" y="80" as="sourcePoint" />
            <mxPoint x="444" y="91" as="targetPoint" />
          </mxGeometry>
        </mxCell>
        <mxCell id="ggKiJLsTE306PYhVsKVT-25" value="req/id" style="ellipse;whiteSpace=wrap;html=1;" parent="1" vertex="1">
          <mxGeometry x="210" y="80" width="60" height="40" as="geometry" />
        </mxCell>
        <mxCell id="ggKiJLsTE306PYhVsKVT-26" value="from/id" style="ellipse;whiteSpace=wrap;html=1;" parent="1" vertex="1">
          <mxGeometry x="210" y="30" width="60" height="40" as="geometry" />
        </mxCell>
        <mxCell id="ggKiJLsTE306PYhVsKVT-27" value="to/id" style="ellipse;whiteSpace=wrap;html=1;" parent="1" vertex="1">
          <mxGeometry x="250" y="-10" width="60" height="40" as="geometry" />
        </mxCell>
        <mxCell id="ggKiJLsTE306PYhVsKVT-28" value="amount" style="ellipse;whiteSpace=wrap;html=1;" parent="1" vertex="1">
          <mxGeometry x="340" y="-30" width="60" height="40" as="geometry" />
        </mxCell>
        <mxCell id="ggKiJLsTE306PYhVsKVT-29" value="status" style="ellipse;whiteSpace=wrap;html=1;" parent="1" vertex="1">
          <mxGeometry x="410" y="-30" width="60" height="40" as="geometry" />
        </mxCell>
        <mxCell id="ggKiJLsTE306PYhVsKVT-30" value="time" style="ellipse;whiteSpace=wrap;html=1;" parent="1" vertex="1">
          <mxGeometry x="490" y="-30" width="60" height="40" as="geometry" />
        </mxCell>
        <mxCell id="ggKiJLsTE306PYhVsKVT-31" value="category" style="ellipse;whiteSpace=wrap;html=1;" parent="1" vertex="1">
          <mxGeometry x="520" y="10" width="60" height="40" as="geometry" />
        </mxCell>
        <mxCell id="ggKiJLsTE306PYhVsKVT-32" value="req/send" style="ellipse;whiteSpace=wrap;html=1;" parent="1" vertex="1">
          <mxGeometry x="560" y="60" width="60" height="40" as="geometry" />
        </mxCell>
        <mxCell id="ggKiJLsTE306PYhVsKVT-34" value="" style="endArrow=none;html=1;rounded=0;exitX=0.5;exitY=0;exitDx=0;exitDy=0;" parent="1" edge="1">
          <mxGeometry width="50" height="50" relative="1" as="geometry">
            <mxPoint x="393" y="500" as="sourcePoint" />
            <mxPoint x="400" y="436.79998779296875" as="targetPoint" />
          </mxGeometry>
        </mxCell>
        <mxCell id="ggKiJLsTE306PYhVsKVT-35" value="Transaction" style="rounded=0;whiteSpace=wrap;html=1;" parent="1" vertex="1">
          <mxGeometry x="335" y="420" width="100" height="50" as="geometry" />
        </mxCell>
        <mxCell id="ggKiJLsTE306PYhVsKVT-36" value="" style="endArrow=none;html=1;rounded=0;entryX=0;entryY=0.75;entryDx=0;entryDy=0;" parent="1" target="ggKiJLsTE306PYhVsKVT-35" edge="1">
          <mxGeometry width="50" height="50" relative="1" as="geometry">
            <mxPoint x="265" y="465" as="sourcePoint" />
            <mxPoint x="205" y="550" as="targetPoint" />
          </mxGeometry>
        </mxCell>
        <mxCell id="ggKiJLsTE306PYhVsKVT-37" value="" style="endArrow=none;html=1;rounded=0;entryX=0;entryY=0.25;entryDx=0;entryDy=0;" parent="1" target="ggKiJLsTE306PYhVsKVT-35" edge="1">
          <mxGeometry width="50" height="50" relative="1" as="geometry">
            <mxPoint x="265" y="420" as="sourcePoint" />
            <mxPoint x="345" y="475" as="targetPoint" />
          </mxGeometry>
        </mxCell>
        <mxCell id="ggKiJLsTE306PYhVsKVT-38" value="" style="endArrow=none;html=1;rounded=0;entryX=0.141;entryY=0.009;entryDx=0;entryDy=0;entryPerimeter=0;" parent="1" target="ggKiJLsTE306PYhVsKVT-35" edge="1">
          <mxGeometry width="50" height="50" relative="1" as="geometry">
            <mxPoint x="275" y="390" as="sourcePoint" />
            <mxPoint x="345" y="475" as="targetPoint" />
          </mxGeometry>
        </mxCell>
        <mxCell id="ggKiJLsTE306PYhVsKVT-39" value="" style="endArrow=none;html=1;rounded=0;exitX=0.402;exitY=1.068;exitDx=0;exitDy=0;exitPerimeter=0;" parent="1" source="ggKiJLsTE306PYhVsKVT-6" edge="1">
          <mxGeometry width="50" height="50" relative="1" as="geometry">
            <mxPoint x="390" y="300" as="sourcePoint" />
            <mxPoint x="385" y="420" as="targetPoint" />
          </mxGeometry>
        </mxCell>
        <mxCell id="ggKiJLsTE306PYhVsKVT-41" value="" style="endArrow=none;html=1;rounded=0;exitX=0;exitY=1;exitDx=0;exitDy=0;" parent="1" edge="1">
          <mxGeometry width="50" height="50" relative="1" as="geometry">
            <mxPoint x="494" y="364" as="sourcePoint" />
            <mxPoint x="425" y="420" as="targetPoint" />
          </mxGeometry>
        </mxCell>
        <mxCell id="ggKiJLsTE306PYhVsKVT-42" value="" style="endArrow=none;html=1;rounded=0;entryX=1;entryY=0.5;entryDx=0;entryDy=0;" parent="1" target="ggKiJLsTE306PYhVsKVT-35" edge="1">
          <mxGeometry width="50" height="50" relative="1" as="geometry">
            <mxPoint x="515" y="400" as="sourcePoint" />
            <mxPoint x="429" y="441" as="targetPoint" />
          </mxGeometry>
        </mxCell>
        <mxCell id="ggKiJLsTE306PYhVsKVT-45" value="req/id" style="ellipse;whiteSpace=wrap;html=1;" parent="1" vertex="1">
          <mxGeometry x="240" y="370" width="60" height="40" as="geometry" />
        </mxCell>
        <mxCell id="ggKiJLsTE306PYhVsKVT-46" value="eq/recive" style="ellipse;whiteSpace=wrap;html=1;" parent="1" vertex="1">
          <mxGeometry x="470" y="330" width="60" height="40" as="geometry" />
        </mxCell>
        <mxCell id="ggKiJLsTE306PYhVsKVT-47" value="do" style="rhombus;whiteSpace=wrap;html=1;" parent="1" vertex="1">
          <mxGeometry x="345" y="320" width="80" height="80" as="geometry" />
        </mxCell>
        <mxCell id="ggKiJLsTE306PYhVsKVT-48" value="category" style="ellipse;whiteSpace=wrap;html=1;" parent="1" vertex="1">
          <mxGeometry x="510" y="380" width="60" height="40" as="geometry" />
        </mxCell>
        <mxCell id="ggKiJLsTE306PYhVsKVT-49" value="from/id" style="ellipse;whiteSpace=wrap;html=1;" parent="1" vertex="1">
          <mxGeometry x="210" y="410" width="60" height="40" as="geometry" />
        </mxCell>
        <mxCell id="ggKiJLsTE306PYhVsKVT-50" value="reciver id" style="ellipse;whiteSpace=wrap;html=1;" parent="1" vertex="1">
          <mxGeometry x="220" y="460" width="60" height="40" as="geometry" />
        </mxCell>
        <mxCell id="ggKiJLsTE306PYhVsKVT-51" value="amount" style="ellipse;whiteSpace=wrap;html=1;" parent="1" vertex="1">
          <mxGeometry x="367.5" y="490" width="60" height="40" as="geometry" />
        </mxCell>
        <mxCell id="ggKiJLsTE306PYhVsKVT-52" value="time" style="ellipse;whiteSpace=wrap;html=1;" parent="1" vertex="1">
          <mxGeometry x="490" y="460" width="60" height="40" as="geometry" />
        </mxCell>
        <mxCell id="ggKiJLsTE306PYhVsKVT-53" value="" style="endArrow=none;html=1;rounded=0;exitX=1;exitY=0.75;exitDx=0;exitDy=0;" parent="1" source="ggKiJLsTE306PYhVsKVT-35" target="ggKiJLsTE306PYhVsKVT-52" edge="1">
          <mxGeometry width="50" height="50" relative="1" as="geometry">
            <mxPoint x="430" y="290" as="sourcePoint" />
            <mxPoint x="480" y="240" as="targetPoint" />
          </mxGeometry>
        </mxCell>
        <mxCell id="ggKiJLsTE306PYhVsKVT-54" value="" style="endArrow=none;html=1;rounded=0;fontStyle=1" parent="1" edge="1">
          <mxGeometry width="50" height="50" relative="1" as="geometry">
            <mxPoint x="430" y="270" as="sourcePoint" />
            <mxPoint x="640" y="270" as="targetPoint" />
          </mxGeometry>
        </mxCell>
        <mxCell id="ggKiJLsTE306PYhVsKVT-56" value="have" style="rhombus;whiteSpace=wrap;html=1;" parent="1" vertex="1">
          <mxGeometry x="510" y="235" width="60" height="70" as="geometry" />
        </mxCell>
        <mxCell id="ggKiJLsTE306PYhVsKVT-57" value="user details" style="rounded=0;whiteSpace=wrap;html=1;" parent="1" vertex="1">
          <mxGeometry x="640" y="250" width="110" height="40" as="geometry" />
        </mxCell>
        <mxCell id="ggKiJLsTE306PYhVsKVT-58" value="" style="endArrow=none;html=1;rounded=0;exitX=0.25;exitY=0;exitDx=0;exitDy=0;entryX=1;entryY=1;entryDx=0;entryDy=0;" parent="1" source="ggKiJLsTE306PYhVsKVT-57" target="ggKiJLsTE306PYhVsKVT-64" edge="1">
          <mxGeometry width="50" height="50" relative="1" as="geometry">
            <mxPoint x="430" y="270" as="sourcePoint" />
            <mxPoint x="668" y="200" as="targetPoint" />
          </mxGeometry>
        </mxCell>
        <mxCell id="ggKiJLsTE306PYhVsKVT-59" value="" style="endArrow=none;html=1;rounded=0;exitX=0.5;exitY=0;exitDx=0;exitDy=0;" parent="1" source="ggKiJLsTE306PYhVsKVT-57" edge="1">
          <mxGeometry width="50" height="50" relative="1" as="geometry">
            <mxPoint x="678" y="260" as="sourcePoint" />
            <mxPoint x="695" y="200" as="targetPoint" />
          </mxGeometry>
        </mxCell>
        <mxCell id="ggKiJLsTE306PYhVsKVT-60" value="" style="endArrow=none;html=1;rounded=0;exitX=1;exitY=0;exitDx=0;exitDy=0;" parent="1" source="ggKiJLsTE306PYhVsKVT-57" edge="1">
          <mxGeometry width="50" height="50" relative="1" as="geometry">
            <mxPoint x="688" y="270" as="sourcePoint" />
            <mxPoint x="750" y="200" as="targetPoint" />
          </mxGeometry>
        </mxCell>
        <mxCell id="ggKiJLsTE306PYhVsKVT-61" value="" style="endArrow=none;html=1;rounded=0;exitX=1;exitY=0.5;exitDx=0;exitDy=0;" parent="1" source="ggKiJLsTE306PYhVsKVT-57" edge="1">
          <mxGeometry width="50" height="50" relative="1" as="geometry">
            <mxPoint x="760" y="260" as="sourcePoint" />
            <mxPoint x="810" y="270" as="targetPoint" />
          </mxGeometry>
        </mxCell>
        <mxCell id="ggKiJLsTE306PYhVsKVT-62" value="" style="endArrow=none;html=1;rounded=0;exitX=0.25;exitY=1;exitDx=0;exitDy=0;" parent="1" source="ggKiJLsTE306PYhVsKVT-67" edge="1">
          <mxGeometry width="50" height="50" relative="1" as="geometry">
            <mxPoint x="450" y="280" as="sourcePoint" />
            <mxPoint x="670" y="360" as="targetPoint" />
          </mxGeometry>
        </mxCell>
        <mxCell id="ggKiJLsTE306PYhVsKVT-63" value="" style="endArrow=none;html=1;rounded=0;exitX=0.619;exitY=1.026;exitDx=0;exitDy=0;exitPerimeter=0;" parent="1" source="ggKiJLsTE306PYhVsKVT-57" target="ggKiJLsTE306PYhVsKVT-69" edge="1">
          <mxGeometry width="50" height="50" relative="1" as="geometry">
            <mxPoint x="678" y="300" as="sourcePoint" />
            <mxPoint x="708" y="360" as="targetPoint" />
          </mxGeometry>
        </mxCell>
        <mxCell id="ggKiJLsTE306PYhVsKVT-64" value="acco no" style="ellipse;whiteSpace=wrap;html=1;" parent="1" vertex="1">
          <mxGeometry x="590" y="170" width="60" height="50" as="geometry" />
        </mxCell>
        <mxCell id="ggKiJLsTE306PYhVsKVT-65" value="mobile no" style="ellipse;whiteSpace=wrap;html=1;" parent="1" vertex="1">
          <mxGeometry x="660" y="170" width="60" height="50" as="geometry" />
        </mxCell>
        <mxCell id="ggKiJLsTE306PYhVsKVT-66" value="country code" style="ellipse;whiteSpace=wrap;html=1;" parent="1" vertex="1">
          <mxGeometry x="725" y="180" width="60" height="50" as="geometry" />
        </mxCell>
        <mxCell id="ggKiJLsTE306PYhVsKVT-68" value="" style="endArrow=none;html=1;rounded=0;exitX=0.25;exitY=1;exitDx=0;exitDy=0;" parent="1" source="ggKiJLsTE306PYhVsKVT-57" target="ggKiJLsTE306PYhVsKVT-67" edge="1">
          <mxGeometry width="50" height="50" relative="1" as="geometry">
            <mxPoint x="668" y="290" as="sourcePoint" />
            <mxPoint x="670" y="360" as="targetPoint" />
          </mxGeometry>
        </mxCell>
        <mxCell id="ggKiJLsTE306PYhVsKVT-67" value="user id" style="ellipse;whiteSpace=wrap;html=1;" parent="1" vertex="1">
          <mxGeometry x="630" y="320" width="60" height="50" as="geometry" />
        </mxCell>
        <mxCell id="ggKiJLsTE306PYhVsKVT-69" value="profile" style="ellipse;whiteSpace=wrap;html=1;" parent="1" vertex="1">
          <mxGeometry x="720" y="305" width="60" height="50" as="geometry" />
        </mxCell>
        <mxCell id="ggKiJLsTE306PYhVsKVT-70" value="bank name" style="ellipse;whiteSpace=wrap;html=1;" parent="1" vertex="1">
          <mxGeometry x="800" y="240" width="70" height="50" as="geometry" />
        </mxCell>
      </root>
    </mxGraphModel>
  </diagram>
</mxfile>
